# xmcd
#
# Track frame offsets: 
#        150
#        13636
#        29134
#        43899
#        56485
#        68725
#        79829
#        91495
#        104369
#        114174
#        127443
#        141120
#        152997
#        167164
#        180596
#        192496
#        205966
#        215743
#        228699
#        237894
#
# Disc length: 3337 seconds
#
# Revision: 3
# Processed by: cddbd v1.5.2PL0 Copyright (c) Steve Scherf et al.
# Submitted via: ExactAudioCopy v1.0b4
#
DISCID=2e0d0714
DTITLE=Various Artist - The Ultimate Blues Box - Disc Two Blue Guitar
DTITLE=Masters
DYEAR=2001
DGENRE=Booty Bass
TTITLE0=Robert Johnson - I Believe I'll Dust My Broom
TTITLE1=Muddy Waters - Country Blues
TTITLE2=T-Bone Walker - I Got A Break Baby
TTITLE3=Lonnie Johnson - Mister Johnson's Swing
TTITLE4=Lightnin' Hopkins - LonesomeDog Blues
TTITLE5=Howlin Wolf feat. Willie Johnson - Mr Highwayman
TTITLE6=Little Milton - If You Love Me Baby
TTITLE7=J.B. Lenoir - Mojo Boogie
TTITLE8=Pat Hare - Bonus Pay
TTITLE9=Junior Parker, feat. Floyd Murphy - Feeling Good
TTITLE10=Eddie Taylor - Bad Boy
TTITLE11=Robert Lockwood - A.W. Baby (Sweet Home Chicago)
TTITLE12=Pee Wee Crayton - The Telephone Is Ringing
TTITLE13=Magic Sam - All Your Love
TTITLE14=Otis Rush - All Your Love (I Miss Loving)
TTITLE15=Buddy Guy - This Is The End
TTITLE16=Lonnire 'Guiter Junior' Brooks - Tell On Me Baby
TTITLE17=Tarheel Slim feat. Jimmy Spruill - Number Nine Train
TTITLE18=Memphis Slim feat. Matt Murphy - Steppin' Out
TTITLE19=Earl Hooker - Blues Guitar
EXTD=The Ultimate Blues Box [CD 2 of 6]\n
EXTT0=
EXTT1=
EXTT2=
EXTT3=
EXTT4=
EXTT5=
EXTT6=
EXTT7=
EXTT8=
EXTT9=
EXTT10=
EXTT11=
EXTT12=
EXTT13=
EXTT14=
EXTT15=
EXTT16=
EXTT17=
EXTT18=
EXTT19=
PLAYORDER=
